<?xml version="1.0" encoding="UTF-8"?>
<svg id="Swan" xmlns="http://www.w3.org/2000/svg" xmlns:xlink="http://www.w3.org/1999/xlink" viewBox="0 0 200 200">
  <defs>
    <linearGradient id="linear-gradient" x1="53.64" y1="2856.95" x2="20.36" y2="3045.7" gradientTransform="translate(68 3050.67) scale(1 -1)" gradientUnits="userSpaceOnUse">
      <stop offset="0" stop-color="#13d6eb"/>
      <stop offset=".28" stop-color="#8bf397"/>
      <stop offset=".66" stop-color="#f997bf"/>
      <stop offset="1" stop-color="#6a22fe"/>
    </linearGradient>
  </defs>
  <path d="M192.93,51.58c-.14-.67-.47-1.3-.95-1.8l-38.37-40.31c-.59-.61-1.27-1.11-2.03-1.49-1-.49-2.11-.76-3.22-.76h-72.27c-.63,0-1.27.12-1.86.34h-.11l-.57.31c-.62.33-1.16.78-1.62,1.33L29.61,60.66l-21.71,26.41c-.76.93-1.07,2.13-.83,3.31.37,1.84,2.01,3.17,3.88,3.17.26,0,.53-.03.81-.08l46.82-9.83,8.65-1.82-27.63,47.64c-.55.93-.61,2.08-.17,3.07.54,1.22,1.75,2,3.08,2,.47,0,.93-.1,1.38-.29l54.65-24.51,18.72-8.39-13.58,36.25h0l-.63,1.68-5.56,14.86c-.31.81-.38,1.69-.2,2.53.15.74.49,1.43.98,2l24.85,32.47.06.08.06.07c.85.96,2.08,1.51,3.36,1.51h0c.89,0,1.75-.26,2.46-.73l35.5-22.99,24.35-8.49.3-.11.27-.18c1.01-.67,1.69-1.69,1.94-2.87.24-1.18,0-2.39-.66-3.4-.84-1.27-2.25-2.03-3.77-2.03h-.05s-.02,0-.02,0l-50.37.9,15.41-27.38,39.4-70.03c1.23-.83,1.9-2.36,1.57-3.9ZM147.28,11.52l-20.27,25.84-46.24-25.84h66.51ZM101.64,27.12l-22.4,26.38-43.48,6.44L75,12.23l26.65,14.89ZM11.82,89.06l20.69-25.16,43.36-6.42-18.75,22.07-34.57,7.26-10.73,2.25ZM77.25,11.52h0l50.21,28.06-23.16-12.93-20.31,23.92-24.13,28.42h0l20.27-23.87,24.18-28.47-27.06-15.12ZM103.01,157.79l28.78-.51,27.77,9.9-32.84,21.26s-.03,0-.04.01c-.03.01-.06.03-.09.03-.01,0-.04,0-.06,0-.02,0-.05-.02-.07-.04l-23.46-30.65ZM146.02,127.31l-3.77,6.7-11.16,19.84-29.11.52,4.81-12.85,39.23-14.21ZM186.15,55.98l-34.51,61.33,2.55-54.62,31.95-6.71ZM123.3,69.17l-33.68,19.42-5.8-11.13,39.48-8.29ZM130.23,69.15l-6.24,16.65-3.51,9.38-22.23,9.97-7.04-13.51,39.02-22.49ZM127.55,86.09l7.24-19.32,15.92-3.34-2.58,55.23-20.58-32.56ZM108.38,137.28l17.66-47.15,20.96,33.16-38.63,13.99ZM96.67,105.86h0l-15.43-29.61h0l7.68,14.73,7.75,14.88ZM72.48,81.34l.99-1.7,6.86-1.44,14.78,28.36-50.35,22.58,27.73-47.8ZM62.61,78.4l22.11-26.03,66.92,7.34-89.03,18.69ZM87.4,49.21l17.3-20.37,21.92,12.24,27.68,15.47-66.9-7.34ZM162.54,59.18h0l-10.01,2.1-19.02,3.99h0l29.03-6.09ZM130.06,39.05l20.68-26.37,37.46,39.35-25.37,5.33-32.77-18.31ZM187,156.29s.07,0,.1.03c.03.02.06.04.08.07,0,0,0,0,0,0,.03.05.04.1.03.15,0,.03,0,.05-.02.08l-1.02.35-22.75,7.93-21.88-7.8,45.46-.81ZM187,154.57h0Z" fill="url(#linear-gradient)" stroke-width="0"/>
</svg>