<?xml version="1.0" encoding="UTF-8"?>
<svg id="Swan" xmlns="http://www.w3.org/2000/svg" xmlns:xlink="http://www.w3.org/1999/xlink" viewBox="0 0 350 300">
  <defs>
    <linearGradient id="linear-gradient" x1="221.59" y1="291.26" x2="194.41" y2="137.1" gradientUnits="userSpaceOnUse">
      <stop offset="0" stop-color="#13d6eb"/>
      <stop offset=".28" stop-color="#8bf397"/>
      <stop offset=".66" stop-color="#f997bf"/>
      <stop offset="1" stop-color="#6a22fe"/>
    </linearGradient>
    <linearGradient id="linear-gradient-2" x1="213.1" y1="9.48" x2="213.1" y2="110.39" gradientUnits="userSpaceOnUse">
      <stop offset="0" stop-color="#13d6eb"/>
      <stop offset=".28" stop-color="#8bf397"/>
      <stop offset=".31" stop-color="#9ae69c"/>
      <stop offset=".37" stop-color="#bcc9a8"/>
      <stop offset=".44" stop-color="#d7b3b2"/>
      <stop offset=".51" stop-color="#e9a3b9"/>
      <stop offset=".58" stop-color="#f59abd"/>
      <stop offset=".66" stop-color="#f997bf"/>
      <stop offset="1" stop-color="#6a22fe"/>
    </linearGradient>
  </defs>
  <path d="M279.88,175.46c-.15-.72-.51-1.39-1.02-1.93l-30.94-32.51c-.55-.58-1.2-1.05-1.92-1.41-.94-.47-1.99-.71-3.04-.71h-58.27c-.57,0-1.13.09-1.67.27h-.17l-.68.37c-.62.33-1.16.77-1.6,1.32l-51.64,62.8c-.81.98-1.13,2.26-.87,3.5.45,2.22,2.62,3.75,4.97,3.27l42.53-8.93-21.15,36.47c-.6,1.03-.67,2.3-.19,3.39.6,1.34,1.93,2.21,3.4,2.21.52,0,1.03-.11,1.52-.33l56.98-25.55-15.1,40.31c-.32.83-.39,1.73-.2,2.6.16.76.5,1.47.97,2.02l20.09,26.25.09.11c.88.99,2.14,1.55,3.46,1.55.91,0,1.79-.26,2.53-.75l28.53-18.47,19.77-6.89.44-.25c1.04-.68,1.74-1.73,1.99-2.95.25-1.21,0-2.45-.68-3.49-.86-1.3-2.31-2.08-3.95-2.08l-38.87.69,43.23-76.83c1.23-.95,1.81-2.5,1.48-4.03ZM242.98,261.65l25.88-.46-13.74,4.79-12.14-4.33ZM238.88,238.58l-10.44,18.55-21.43.38,3.2-8.55,28.66-10.38ZM208.39,262.26l21.05-.38,20.31,7.24-24.14,15.63-17.22-22.5ZM183.21,199.17l4.35-.91,11.08,21.26-36.8,16.5,20.8-35.86.57-.99ZM188.84,195.55h0s0,0,0,0ZM171.6,197.76h0s0,0,0,0h0ZM182.02,181.8l-13.17,15.51-33.4,7.01,14.63-17.79,31.95-4.73ZM271.48,180.64l-24.67,43.86,1.82-39.06,22.85-4.8ZM239.26,182.53l-62.79,13.18,15.59-18.36,47.19,5.18ZM203.74,156.22l-17.03,20.06-32.12,4.76,29.46-35.82,19.69,11.01ZM195.79,172.96l12.2-14.37,34.97,19.54-47.17-5.17ZM192.31,144.36h47.73l-14.54,18.54-33.19-18.54ZM226.11,165.98h0s0,0,0,0ZM226.43,192.09l-6.74,17.99-16.68,7.48-4.8-9.21,28.22-16.27ZM216.82,192.12l-20.82,12-3.58-6.88,24.4-5.12ZM243.8,186.45l-1.87,40.07-14.64-23.15,5.47-14.6,11.03-2.32ZM254.4,181.79h0s0,0,0,0h0ZM273.12,175.42l-18.33,3.85-25.07-14.01,15.24-19.43,28.17,29.59ZM201.29,219.43h0s0,0,0,0ZM240.36,232.97l-27.94,10.12,12.78-34.11,15.16,23.99Z" fill="url(#linear-gradient)" stroke-width="0"/>
  <g>
    <polygon points="16.94 110.39 24.15 110.39 24.15 80.79 67.86 80.79 67.86 57.76 24.15 57.76 24.15 35.38 78.67 35.38 78.67 28.17 16.94 28.17 16.94 110.39" fill="#f7eded" stroke-width="0"/>
    <path d="M157.63,72.41c3.79-4.91,5.72-10.56,5.72-16.8,0-5.34-1.4-10.28-4.16-14.68h0c-2.76-4.4-6.6-7.77-11.4-10.01-2.09-.96-4.41-1.67-6.92-2.11-2.47-.43-5.44-.65-8.85-.65h-31.66v82.22h7.21v-27.2h27.12s2.84-.09,2.84-.09l19.45,27.29h8.7l-20.64-28.8c5.01-1.76,9.24-4.84,12.59-9.18ZM153.39,65.78c-1.83,3.1-4.34,5.6-7.44,7.44-3.09,1.82-6.51,2.75-10.16,2.75h-28.21v-40.59h24.45c5.16,0,9.18.58,11.93,1.7,3.8,1.62,6.81,4.11,8.95,7.4,2.14,3.3,3.23,7.05,3.23,11.13,0,3.66-.93,7.08-2.75,10.17Z" fill="#f7eded" stroke-width="0"/>
    <path d="M232.76,54.34h-37.04l-19.8-44.86h-7.8l42.94,100.9h6.44l40.59-100.9h-7.68l-17.64,44.86ZM229.85,61.44l-15.53,38.02-15.63-38.02h31.16Z" fill="url(#linear-gradient-2)" stroke-width="0"/>
    <polygon points="325.85 28.05 325.85 79.84 272.64 28.05 266.09 28.05 266.09 110.27 333.06 110.27 333.06 28.05 325.85 28.05" fill="#f7eded" stroke-width="0"/>
  </g>
</svg>