<?xml version="1.0" encoding="UTF-8"?>
<svg id="Swan" xmlns="http://www.w3.org/2000/svg" xmlns:xlink="http://www.w3.org/1999/xlink" viewBox="0 0 350 300">
  <defs>
    <linearGradient id="linear-gradient" x1="218.85" y1="286.95" x2="191.99" y2="134.58" gradientUnits="userSpaceOnUse">
      <stop offset="0" stop-color="#13d6eb"/>
      <stop offset=".28" stop-color="#8bf397"/>
      <stop offset=".66" stop-color="#f997bf"/>
      <stop offset="1" stop-color="#6a22fe"/>
    </linearGradient>
    <linearGradient id="linear-gradient-2" x1="213.1" y1="13.86" x2="213.1" y2="114.77" xlink:href="#linear-gradient"/>
  </defs>
  <path d="M275.52,172.75l-33.01,58.67-14.61,25.97,45.52-.81c.55,0,1.06.26,1.37.72.49.74.29,1.74-.45,2.23l-20.45,7.13-29.67,19.21c-.66.44-1.55.32-2.08-.27l-20.66-26.99c-.19-.21-.32-.47-.38-.74-.06-.3-.04-.61.07-.9l4.62-12.34h0l13.58-36.26-20.21,9.06-45.34,20.33c-.33.15-.72,0-.87-.33-.09-.19-.07-.42.03-.6l25.34-43.68-11.87,2.49-38.84,8.15c-.62.13-1.23-.27-1.35-.9-.07-.34.02-.69.24-.96l18.02-21.91h0l35.12-42.7c.19-.23.43-.43.7-.57h0c.34-.18.71-.28,1.09-.28h59.95c.6,0,1.19.14,1.72.41.41.2.78.48,1.09.8l31.82,33.43c.12.13.21.29.25.47.11.53-.22,1.05-.75,1.16Z" fill="url(#linear-gradient)" stroke-width="0"/>
  <g>
    <polygon points="16.94 114.77 24.15 114.77 24.15 85.17 67.86 85.17 67.86 62.14 24.15 62.14 24.15 39.76 78.67 39.76 78.67 32.55 16.94 32.55 16.94 114.77" fill="#032230" stroke-width="0"/>
    <path d="M157.63,76.79c3.79-4.91,5.72-10.56,5.72-16.8,0-5.34-1.4-10.28-4.16-14.68h0c-2.76-4.4-6.6-7.77-11.4-10.01-2.09-.96-4.41-1.67-6.92-2.11-2.47-.43-5.44-.65-8.85-.65h-31.66v82.22h7.21v-27.2h27.12s2.84-.09,2.84-.09l19.45,27.29h8.7l-20.64-28.8c5.01-1.76,9.24-4.84,12.59-9.18ZM153.39,70.16c-1.83,3.1-4.34,5.6-7.44,7.44-3.09,1.82-6.51,2.75-10.16,2.75h-28.21v-40.59h24.45c5.16,0,9.18.58,11.93,1.7,3.8,1.62,6.81,4.11,8.95,7.4,2.14,3.3,3.23,7.05,3.23,11.13,0,3.66-.93,7.08-2.75,10.17Z" fill="#032230" stroke-width="0"/>
    <path d="M232.76,58.72h-37.04l-19.8-44.86h-7.8l42.94,100.9h6.44l40.59-100.9h-7.68l-17.64,44.86ZM229.85,65.82l-15.53,38.02-15.63-38.02h31.16Z" fill="url(#linear-gradient-2)" stroke-width="0"/>
    <polygon points="325.85 32.43 325.85 84.22 272.64 32.43 266.09 32.43 266.09 114.65 333.06 114.65 333.06 32.43 325.85 32.43" fill="#032230" stroke-width="0"/>
  </g>
</svg>