<?xml version="1.0" encoding="UTF-8"?>
<svg id="Swan" xmlns="http://www.w3.org/2000/svg" viewBox="0 0 200 200">
  <path d="M192.06,52.19l-40.93,72.75-18.12,32.19,56.44-1c.68,0,1.32.33,1.69.9.61.92.36,2.16-.56,2.77l-25.35,8.84-36.78,23.82c-.82.54-1.92.4-2.57-.33l-25.61-33.47c-.23-.26-.4-.58-.47-.92-.08-.37-.05-.76.09-1.11l5.73-15.3h0l16.84-44.96-25.06,11.24-56.21,25.2c-.41.18-.89,0-1.07-.41-.11-.24-.09-.51.04-.74l31.41-54.16-14.72,3.09-48.16,10.11c-.77.16-1.52-.34-1.68-1.11-.09-.42.02-.86.3-1.19l22.34-27.17h0L73.18,8.28c.24-.29.53-.53.87-.71h0c.42-.23.88-.34,1.36-.35h74.33c.74,0,1.47.17,2.14.5.51.25.96.59,1.35,1l39.46,41.45c.15.16.26.36.31.58.14.65-.28,1.3-.93,1.44Z" stroke-width="0"/>
</svg>