<?xml version="1.0" encoding="UTF-8"?>
<svg id="Layer_1" data-name="Layer 1" xmlns="http://www.w3.org/2000/svg" viewBox="0 0 1080 1920">
  <g>
    <path d="M528.54,185.08l111.23,111.23c.75.75,1.77,1.17,2.83,1.17h34.4l107.02,107.02c.78.78,1.8,1.17,2.83,1.17s2.05-.39,2.83-1.17l27.1-27.1,186.25,186.25H76.98l147.11-147.11h37.88c1.06,0,2.08-.42,2.83-1.17l129.47-129.47,13.9,13.9c.75.75,1.77,1.17,2.83,1.17s2.08-.42,2.83-1.17l114.7-114.7M528.54,179.42l-117.53,117.53-16.73-16.73-132.3,132.3h-39.54l-155.11,155.11h945.34l-195.9-195.9-29.92,29.92-108.19-108.19h-36.06l-114.06-114.06h0Z" fill="#fff" stroke-width="0"/>
    <path d="M564.7,221.23l72.24,72.24-69.95,69.95c-.75.75-1.17,1.77-1.17,2.83v116.75l-34.93,34.93c-.75.75-1.17,1.77-1.17,2.83v20.37l-22.51,22.51h-161.47l98.49-98.49c1.56-1.56,1.56-4.09,0-5.66l-43.98-43.98v-29.82l164.46-164.46M564.7,215.58l-168.46,168.46v33.13l45.15,45.15-105.32,105.32h172.79l24.86-24.86v-22.03l36.1-36.1v-118.4l72.78-72.78-77.9-77.9h0Z" fill="#fff" stroke-width="0"/>
    <path d="M565.82,375.91v107.09l-34.93,34.93c-.75.75-1.17,1.77-1.17,2.83v20.37l-22.51,22.51h-8.14l12.62-12.62c.75-.75,1.17-1.77,1.17-2.83v-20.23l41.83-41.83c.75-.75,1.17-1.77,1.17-2.83v-97.44l9.96-9.96M569.82,366.25l-17.96,17.95v99.1l-43,43v21.88l-19.45,19.45h19.45l24.86-24.86v-22.03l36.1-36.1v-118.4h0Z" fill="#fff" stroke-width="0"/>
    <path d="M497.93,449.96v22.22l-25.52,25.51c-.75.75-1.17,1.77-1.17,2.83v40.6l-22.51,22.51h-64.48l113.68-113.68M501.93,440.31l-127.33,127.33h75.79l24.86-24.86v-42.26l26.69-26.69v-33.54h0Z" fill="#fff" stroke-width="0"/>
    <path d="M678.66,299.13l92.01,92.01-63.65,63.65c-.75.75-1.17,1.77-1.17,2.83s.42,2.08,1.17,2.83l32.58,32.58-70.61,70.61h-71.07l23.44-23.43c.75-.75,1.17-1.77,1.17-2.83v-81.55l21.06-21.06c.75-.75,1.17-1.77,1.17-2.83v-98.91l33.89-33.89M678.66,293.48l-37.89,37.89v100.57l-22.23,22.23v83.21l-30.26,30.26h82.38l74.61-74.61-35.41-35.41,66.48-66.48-97.67-97.67h0Z" fill="#fff" stroke-width="0"/>
    <path d="M776.33,396.8l4.86,4.86-60.82,60.82-4.86-4.86,60.82-60.82M776.33,391.14l-66.48,66.48,10.52,10.52,66.48-66.48-10.52-10.52h0Z" fill="#fff" stroke-width="0"/>
    <path d="M741.62,502.33l.44,11.29-16.19,16.19c-.75.75-1.17,1.77-1.17,2.83v14.5l-16.51,16.51h-27.89l61.32-61.32M745.26,493.03l-74.61,74.61h39.2l18.85-18.85v-16.16l17.42-17.42-.87-22.17h0Z" fill="#fff" stroke-width="0"/>
    <path d="M820.77,381.4l182.25,182.24h-116.6l-17.11-17.11v-28.44c0-2.21-1.79-4-4-4h-20.07l7.29-7.29c.75-.75,1.17-1.77,1.17-2.83v-30.74c0-1.06-.42-2.08-1.17-2.83l-31.75-31.75v-57.25M816.77,371.74v68.57l32.92,32.92v30.74l-14.12,14.12h29.73v30.1l19.45,19.45h127.92l-195.9-195.9h0Z" fill="#fff" stroke-width="0"/>
    <path d="M812.77,381.4v58.91c0,1.06.42,2.08,1.17,2.83l31.75,31.75v27.43l-12.95,12.95c-1.14,1.14-1.49,2.86-.87,4.36.62,1.49,2.08,2.47,3.7,2.47h25.73v26.1c0,1.06.42,2.08,1.17,2.83l12.62,12.62h-55.82v-15.44c0-1.06-.42-2.08-1.17-2.83l-24.69-24.69,12.84-12.84c1.56-1.56,1.56-4.09,0-5.66l-32.79-32.79,26.25-26.25c.75-.75,1.17-1.77,1.17-2.83v-47.04l11.87-11.87M816.77,371.74l-19.87,19.87v48.7l-29.08,29.08,35.62,35.62-15.67,15.67,27.52,27.52v19.44h69.47l-19.45-19.45v-30.1h-29.73l14.12-14.12v-30.74l-32.92-32.92v-68.57h0Z" fill="#fff" stroke-width="0"/>
    <path d="M528.54,185.08l53.35,53.35-140.17,140.17c-.75.75-1.17,1.77-1.17,2.83v33.13c0,1.06.42,2.08,1.17,2.83l19.47,19.47-126.78,126.79h-108.24l74.04-81.36c.67-.74,1.04-1.7,1.04-2.69v-21.38c0-1.06-.42-2.08-1.17-2.83l-38.85-38.85h.74c1.06,0,2.08-.42,2.83-1.17l129.47-129.47,13.9,13.9c.78.78,1.81,1.17,2.83,1.17s2.05-.39,2.83-1.17l114.7-114.7M528.54,179.42l-117.53,117.53-16.73-16.73-132.3,132.3h-10.4l45.68,45.68v21.38l-80.13,88.05h118.94l130.78-130.79-22.3-22.3v-33.13l142.99-143-59.01-59.01h0Z" fill="#fff" stroke-width="0"/>
    <path d="M249.93,416.53l43.33,43.33v42.46l-61.32,61.32h-46.76l40.31-147.11h24.43M251.58,412.53h-29.14l-42.51,155.11h53.66l63.66-63.67v-45.77l-45.68-45.68h0Z" fill="#fff" stroke-width="0"/>
    <path d="M222.44,418.19l47.99,47.99v42.51l-54.96,54.96H76.98l145.46-145.46M222.44,412.53l-155.11,155.11h149.8l57.3-57.3v-45.83l-51.99-51.99h0Z" fill="#fff" stroke-width="0"/>
    <path d="M218.44,422.19v24.32l-117.14,117.14h-24.31l141.46-141.46M222.44,412.53l-155.11,155.11h35.63l119.49-119.48v-35.63h0Z" fill="#fff" stroke-width="0"/>
    <path d="M415.01,306.61l49.35,49.35-48.1,48.1-9.88,9.88v-23.77c0-1.06-.42-2.08-1.17-2.83l-8.57-8.57,17.99-17.99c1.56-1.56,1.56-4.09,0-5.66l-10.86-10.86,10.07-10.07c.75-.75,1.17-1.77,1.17-2.83v-24.76M411.01,296.95v34.42s-12.89,12.9-12.89,12.9l13.69,13.69-20.82,20.82,11.39,11.39v33.42l16.71-16.71,50.93-50.93-59.01-59.01h0Z" fill="#fff" stroke-width="0"/>
    <path d="M460.9,352.5l3.46,3.46-3.47,3.47c0-.08,0-.17,0-.25v-6.68M456.9,342.84v16.34l-54.52,54.52v9.9l16.71-16.71,50.93-50.93-13.12-13.12h0Z" fill="#fff" stroke-width="0"/>
    <path d="M394.99,388.44l3.39,3.39v30.11l-43.37,43.37c-.75.75-1.17,1.77-1.17,2.83s.42,2.08,1.17,2.83l16.52,16.52-52.18,52.18h-17.76c-1.06,0-2.08.42-2.83,1.17l-22.81,22.8h-10.17l56.84-56.84c.75-.75,1.17-1.77,1.17-2.83v-27.6l70-70c.75-.75,1.17-1.77,1.17-2.83v-15.11M390.99,378.78v24.76l-71.17,71.17v29.25l-63.67,63.67h21.48l23.98-23.97h19.42l56.18-56.18-19.35-19.35,44.54-44.54v-33.42l-11.39-11.39h0Z" fill="#fff" stroke-width="0"/>
    <path d="M583.55,248.08v30.48l-21.19,21.19c-.75.75-1.17,1.77-1.17,2.83v26.31l-42.11,42.11c-.75.75-1.17,1.77-1.17,2.83v19.87l-55.31,55.31c-.75.75-1.17,1.77-1.17,2.83v36.59l-75.22,75.21h-47.3l94.35-94.35c1.16-1.16,1.49-2.9.85-4.4-.63-1.47-2.08-2.43-3.68-2.43-.03,0-.06,0-.09,0l-62.63,1.45,215.82-215.83M587.55,238.43l-229.71,229.71,72.61-1.68-101.18,101.18h58.61l77.56-77.56v-38.25l56.48-56.48v-21.53l43.28-43.28v-27.97l22.36-22.36v-41.8h0Z" fill="#fff" stroke-width="0"/>
    <path d="M766.67,395.14l-18.76,18.76-40.89,40.89c-.75.75-1.17,1.77-1.17,2.83s.42,2.08,1.17,2.83l32.58,32.58-70.61,70.61h-12.19l58.57-58.57c.75-.75,1.17-1.77,1.17-2.83s-.42-2.08-1.17-2.83l-10.69-10.69,8.08-8.07c.75-.75,1.17-1.77,1.17-2.83s-.42-2.08-1.17-2.83l-25.53-25.53,54.32-54.32h25.12M776.33,391.14h0,0ZM776.33,391.14h-36.44l-58.32,58.32,28.36,28.36-10.91,10.9,13.52,13.52-65.4,65.4h23.51l74.61-74.61-35.41-35.41,40.89-40.89,25.58-25.58h0Z" fill="#fff" stroke-width="0"/>
    <path d="M1006.67,573.64v192.9l-67.54,67.54c-1.12,1.13-1.76,2.65-1.76,4.24v174.03l-46.79,46.79c-1.12,1.13-1.76,2.65-1.76,4.24v104.19l-116.63,116.63c-1.12,1.13-1.76,2.65-1.76,4.24v201.74l-241.89,241.89-131.68-131.68v-145.82c0-1.59-.63-3.12-1.76-4.24l-213.04-213.04v-133.62c0-1.59-.63-3.12-1.76-4.24l-72-72v-184.56c0-1.59-.63-3.12-1.76-4.24l-33.22-33.22v-231.79h933.34M1012.67,567.64H67.33v240.27l34.98,34.98v187.05l73.75,73.75v136.11l214.8,214.8v148.3l137.68,137.68,247.89-247.89v-204.23l118.39-118.39v-106.68l48.55-48.55v-176.52l69.3-69.3v-201.39h0Z" fill="#fff" stroke-width="0"/>
    <path d="M108.31,857.38l214.77,214.77v100.74c0,1.59.63,3.12,1.76,4.24l61.78,61.78,44.98,44.99v55.06l-44.98,44.98c-1.12,1.13-1.76,2.65-1.76,4.24v51.93s-202.8-202.8-202.8-202.8v-133.62c0-1.59-.63-3.12-1.76-4.24l-72-72v-170.08M102.31,842.89v187.05l73.75,73.75v136.11l214.8,214.8v-66.42s46.74-46.74,46.74-46.74v-60.03l-46.74-46.74-61.78-61.78v-103.23l-226.77-226.77h0Z" fill="#fff" stroke-width="0"/>
    <path d="M1006.67,582.13v184.42l-67.54,67.54c-1.12,1.13-1.76,2.65-1.76,4.24v174.03l-36.55,36.55v-92.99c0-1.59-.63-3.12-1.76-4.24l-76.85-76.85,47.46-47.46c1.12-1.13,1.76-2.65,1.76-4.24v-105.76l135.24-135.24M1012.67,567.64l-147.24,147.24v108.24l-51.7,51.7,81.09,81.09v107.48l48.55-48.55v-176.52l69.3-69.3v-201.39h0Z" fill="#fff" stroke-width="0"/>
    <path d="M690.34,1210.85l80.09,80.09v199.26l-90.33,90.33-145.56,145.56v-115.26l154.04-154.04c1.12-1.13,1.76-2.65,1.76-4.24v-241.7M684.34,1196.37v256.18l-155.8,155.8v132.23l155.8-155.8,92.09-92.09v-204.23l-92.09-92.09h0Z" fill="#fff" stroke-width="0"/>
  </g>
  <path d="M108.31,857.38l214.77,214.77v100.74c0,1.59.63,3.12,1.76,4.24l98.28,98.28h-82.6l-102-102,61.81-61.8c1.12-1.13,1.76-2.65,1.76-4.24s-.63-3.12-1.76-4.24l-192.02-192.02v-53.73M102.31,842.89v70.7l193.78,193.78-66.05,66.05,108,108h99.57l-108.52-108.52v-103.23l-226.77-226.77h0Z" fill="#fff" stroke-width="0"/>
  <path d="M100.47,573.64l125,125v72.86c0,3.31,2.69,6,6,6h59.78v182.5c0,1.59.63,3.12,1.76,4.24l96.18,96.18v160.43l-54.12-50.57v-100.62c0-1.59-.63-3.12-1.76-4.24l-147.38-147.38v-102.52c0-1.59-.63-3.12-1.76-4.24l-36.87-36.87,46.18-46.18c2.34-2.34,2.34-6.14,0-8.49l-120.16-120.16v-25.93h27.14M102.96,567.64h-35.63v34.42l121.92,121.92-50.42,50.43,41.11,41.11v105.01l149.14,149.14v103.23l66.12,61.78v-176.73l-97.94-97.94v-188.5h-65.78v-75.34l-128.52-128.52h0Z" fill="#fff" stroke-width="0"/>
  <path d="M637.85,573.64l-52.07,52.06h-38.87c-1.59,0-3.12.63-4.24,1.76l-63.27,63.27c-2.34,2.34-2.34,6.14,0,8.49l62.9,62.9-83.74,83.74-105.42-105.43v-103.29c0-1.59-.63-3.12-1.76-4.24l-59.27-59.26h345.74M652.33,567.64h0,0ZM652.33,567.64h-374.71l69.51,69.51v105.78l111.42,111.43,92.23-92.23-67.15-67.15,63.27-63.27h41.36l64.07-64.06h0Z" fill="#fff" stroke-width="0"/>
  <path d="M678.34,1210.85v239.21l-15.94,15.94v-31.82c0-1.59-.63-3.12-1.76-4.24l-28.6-28.6v-144.19l46.3-46.3M684.34,1196.37l-58.3,58.3v149.16l30.36,30.36v46.31l27.94-27.94v-256.18h0Z" fill="#fff" stroke-width="0"/>
  <path d="M859.43,729.36v91.27l-49.95,49.95c-1.12,1.13-1.76,2.65-1.76,4.24s.63,3.12,1.76,4.24l76.85,76.85-135.14,135.14c-2.34,2.34-2.34,6.14,0,8.49l74.75,74.75-77.6,77.6-59.76-59.76c-1.13-1.13-2.65-1.76-4.24-1.76s-3.12.63-4.24,1.76l-54.06,54.06-64.31-64.31,126.85-126.85c1.72-1.72,2.23-4.3,1.3-6.54-.93-2.24-3.12-3.7-5.54-3.7h-39.05l53.46-53.46c1.12-1.13,1.76-2.65,1.76-4.24v-98.78l158.93-158.93M865.43,714.88l-170.93,170.93v101.27l-63.7,63.7h53.54l-131.1,131.1,72.8,72.8,58.3-58.3,64.01,64.01,86.08-86.08-78.99-78.99,139.38-139.39-81.09-81.09,51.7-51.7v-108.24h0Z" fill="#fff" stroke-width="0"/>
  <path d="M888.82,970.4v197.18l-112.39,112.39-19.6-19.6,81.84-81.84c2.34-2.34,2.34-6.14,0-8.49l-74.75-74.75,124.9-124.9M894.82,955.92l-139.38,139.39,78.99,78.99-86.08,86.08,28.09,28.09,118.39-118.39v-214.15h0Z" fill="#fff" stroke-width="0"/>
  <path d="M882.27,573.64l24.78,24.78-133.11,133.11h-85.69c-1.59,0-3.12.63-4.24,1.76l-51.98,51.98v-88.18h59.79c1.59,0,3.12-.63,4.24-1.76l121.7-121.69h64.5M884.76,567.64h-69.47l-123.45,123.45h-65.79v108.66l62.22-62.22h88.17l139.11-139.11-30.78-30.78h0Z" fill="#fff" stroke-width="0"/>
  <path d="M632.59,844.37l-81.36,81.36c-2.34,2.34-2.34,6.14,0,8.49l68.28,68.28-189.86,189.86v-37.56l84.4-84.4c1.12-1.13,1.76-2.65,1.76-4.24s-.63-3.12-1.76-4.24l-93.04-93.03,124.5-124.5h87.07M647.08,838.37h0,0ZM647.08,838.37h-104.04l-130.5,130.5,97.28,97.28-86.16,86.16v54.53l204.34-204.34-72.52-72.52,91.6-91.6h0Z" fill="#fff" stroke-width="0"/>
  <path d="M431.6,1355.93v66.61c0,1.59.63,3.12,1.76,4.24l30.3,30.3v64.53l-66.8,66.8v-197.75s34.74-34.74,34.74-34.74M437.6,1341.44l-46.74,46.74v214.72s78.8-78.8,78.8-78.8v-69.5l-32.06-32.06v-81.09h0Z" fill="#fff" stroke-width="0"/>
</svg>